<?xml version="1.0" encoding="UTF-8" standalone="no"?>
<svg width="50px" height="50px" viewBox="0 0 50 50" version="1.1" xmlns="http://www.w3.org/2000/svg" xmlns:xlink="http://www.w3.org/1999/xlink">
    <g stroke="none" stroke-width="1" fill="none" fill-rule="evenodd">
        <path d="M25,50 C38.8071194,50 50,38.8071194 50,25 C50,11.1928806 38.8071194,0 25,0 C11.1928806,0 0,11.1928806 0,25 C0,38.8071194 11.1928806,50 25,50 Z M24.4791667,34.375 C29.9444848,34.375 34.375,29.9444848 34.375,24.4791667 C34.375,19.0138486 29.9444848,14.5833333 24.4791667,14.5833333 C19.0138486,14.5833333 14.5833333,19.0138486 14.5833333,24.4791667 C14.5833333,29.9444848 19.0138486,34.375 24.4791667,34.375 Z" fill="#3CC76A"></path>
        <path d="M50,25 C50,38.8071194 38.8071194,50 25,50 L25,34.3615291 C30.223211,34.0906891 34.375,29.7697793 34.375,24.4791667 C34.375,19.188554 30.223211,14.8676443 25,14.5968042 L25,0 C38.8071194,0 50,11.1928806 50,25 Z" fill="#089972"></path>
    </g>
</svg>